<svg width="100%" height="auto" viewBox="0 0 12 7" fill="none" xmlns="http://www.w3.org/2000/svg">
    <path fill-rule="evenodd" clip-rule="evenodd" fill="black"
          d="M0 3.5C0 3.39687 0.04515 3.29797 0.125518 3.22505C0.205885 3.15213 0.314887 3.11117 0.428544 3.11117H10.5362L7.83893 0.66462C7.75846 0.591608 7.71325 0.492581 7.71325 0.389325C7.71325 0.28607 7.75846 0.187043 7.83893 0.114031C7.9194 0.041018 8.02854 2.43278e-09 8.14234 0C8.25614 -2.43278e-09 8.36528 0.041018 8.44575 0.114031L11.8741 3.22471C11.914 3.26082 11.9457 3.30373 11.9673 3.35097C11.9889 3.39821 12 3.44885 12 3.5C12 3.55115 11.9889 3.60179 11.9673 3.64903C11.9457 3.69627 11.914 3.73918 11.8741 3.77529L8.44575 6.88597C8.36528 6.95898 8.25614 7 8.14234 7C8.02854 7 7.9194 6.95898 7.83893 6.88597C7.75846 6.81296 7.71325 6.71393 7.71325 6.61067C7.71325 6.50742 7.75846 6.40839 7.83893 6.33538L10.5362 3.88883H0.428544C0.314887 3.88883 0.205885 3.84787 0.125518 3.77495C0.04515 3.70203 0 3.60313 0 3.5Z"/>
</svg>
